<svg xmlns="http://www.w3.org/2000/svg" viewBox="0 0 48 48"><defs><style>.cls-1{fill:#65b1fc;}.cls-2{fill:#fff;}.cls-3{fill:#256494;}</style></defs><title>22-Adventure games</title><g id="_22-Adventure_games" data-name="22-Adventure games"><path class="cls-1" d="M35,30H9c-7,0-8-8-8-8H35v8Z"/><rect class="cls-1" x="40" y="24" width="7" height="4"/><polygon class="cls-2" points="37 28 35 28 35 24 37 24 40 24 40 28 37 28"/><path class="cls-2" d="M28,13V39c0,7-8,8-8,8V13h8Z"/><rect class="cls-1" x="22" y="1" width="4" height="7"/><polygon class="cls-2" points="26 11 26 13 22 13 22 11 22 8 26 8 26 11"/><path class="cls-3" d="M32,16V14a2,2,0,0,0-2-2H27V9h2V7H27V1a1,1,0,0,0-1-1H22a1,1,0,0,0-1,1V7H19V9h2v3H18a2,2,0,0,0-2,2v2h2V14h1V47a1,1,0,0,0,1,1,1.032,1.032,0,0,0,.124-.008C23.194,47.608,29,45.235,29,39V14h1v2ZM23,2h2V7H23Zm0,7h2v3H23Zm4,30c0,4.6-3.987,6.238-6,6.773V14h6Z"/><rect class="cls-3" x="23" y="25" width="2" height="16"/><rect class="cls-3" x="23" y="21" width="2" height="2"/><rect class="cls-3" x="23" y="17" width="2" height="2"/><path class="cls-3" d="M.25,21.338a1,1,0,0,0-.242.786C.392,25.194,2.765,31,9,31h8V29H9c-4.6,0-6.238-3.987-6.773-6H17V21H1A1,1,0,0,0,.25,21.338Z"/><path class="cls-3" d="M34,18H32v2h2v1H31v2h3v6H31v2h3v1H32v2h2a2,2,0,0,0,2-2V20A2,2,0,0,0,34,18Z"/><rect class="cls-3" x="7" y="25" width="10" height="2"/><path class="cls-3" d="M47,23H41V21H39v2H37v2h2v2H37v2h2v2h2V29h6a1,1,0,0,0,1-1V24A1,1,0,0,0,47,23Zm-1,4H41V25h5Z"/></g></svg>